<svg width="17" height="17" viewBox="0 0 17 17" fill="none" xmlns="http://www.w3.org/2000/svg">
<path d="M16.2453 10.1117C16.1651 10.0313 16.0646 9.97433 15.9545 9.9468C15.8444 9.91928 15.7289 9.92225 15.6203 9.95541C14.4286 10.3157 13.1614 10.3459 11.9539 10.0428C10.7463 9.73973 9.6436 9.11471 8.76324 8.23436C7.88289 7.354 7.25787 6.2513 6.95478 5.04374C6.6517 3.83619 6.68191 2.56903 7.04219 1.37729C7.07562 1.26869 7.07883 1.15304 7.05145 1.04276C7.02407 0.932488 6.96715 0.831762 6.88681 0.751418C6.80646 0.671074 6.70574 0.614152 6.59546 0.586774C6.48518 0.559396 6.36953 0.562598 6.26094 0.596035C4.6133 1.10076 3.16683 2.11228 2.12734 3.48666C1.21829 4.69358 0.663793 6.13008 0.526144 7.63476C0.388496 9.13945 0.673152 10.6527 1.34813 12.0045C2.02311 13.3564 3.06167 14.4932 4.34714 15.2873C5.6326 16.0814 7.11403 16.5014 8.625 16.4999C10.3878 16.5054 12.1036 15.9323 13.5094 14.8687C14.8838 13.8292 15.8953 12.3827 16.4 10.7351C16.4331 10.6269 16.4361 10.5118 16.4089 10.402C16.3816 10.2922 16.3251 10.1918 16.2453 10.1117ZM12.7578 13.8703C11.434 14.8673 9.79461 15.3527 8.14137 15.2369C6.48813 15.1211 4.93235 14.4121 3.76042 13.2403C2.5885 12.0684 1.87931 10.5127 1.76341 8.85947C1.64752 7.20624 2.13272 5.56679 3.12969 4.24291C3.77922 3.38515 4.61896 2.68982 5.58281 2.21166C5.5279 2.59699 5.50023 2.98572 5.5 3.37494C5.50227 5.52913 6.35903 7.59443 7.88227 9.11767C9.40551 10.6409 11.4708 11.4977 13.625 11.4999C14.015 11.4998 14.4045 11.4721 14.7906 11.4171C14.312 12.3811 13.6161 13.2209 12.7578 13.8703Z" fill="black"/>
</svg>
