<svg width="16" height="17" viewBox="0 0 16 17" fill="none" xmlns="http://www.w3.org/2000/svg">
<path d="M15.0961 7.10668L8.84609 1.2098C8.84304 1.20714 8.84017 1.20427 8.8375 1.20121C8.60739 0.991939 8.30752 0.875977 7.99648 0.875977C7.68545 0.875977 7.38558 0.991939 7.15547 1.20121L7.14688 1.2098L0.903906 7.10668C0.776561 7.22378 0.674909 7.36604 0.605384 7.52445C0.535859 7.68287 0.499974 7.85399 0.5 8.02699V15.2496C0.5 15.5812 0.631696 15.8991 0.866116 16.1335C1.10054 16.368 1.41848 16.4996 1.75 16.4996H5.5C5.83152 16.4996 6.14946 16.368 6.38388 16.1335C6.6183 15.8991 6.75 15.5812 6.75 15.2496V11.4996H9.25V15.2496C9.25 15.5812 9.3817 15.8991 9.61612 16.1335C9.85054 16.368 10.1685 16.4996 10.5 16.4996H14.25C14.5815 16.4996 14.8995 16.368 15.1339 16.1335C15.3683 15.8991 15.5 15.5812 15.5 15.2496V8.02699C15.5 7.85399 15.4641 7.68287 15.3946 7.52445C15.3251 7.36604 15.2234 7.22378 15.0961 7.10668ZM14.25 15.2496H10.5V11.4996C10.5 11.1681 10.3683 10.8502 10.1339 10.6158C9.89946 10.3813 9.58152 10.2496 9.25 10.2496H6.75C6.41848 10.2496 6.10054 10.3813 5.86612 10.6158C5.6317 10.8502 5.5 11.1681 5.5 11.4996V15.2496H1.75V8.02699L1.75859 8.01918L8 2.12465L14.2422 8.01762L14.2508 8.02543L14.25 15.2496Z" fill="black"/>
</svg>
