<svg width="17" height="17" viewBox="0 0 17 17" fill="none" xmlns="http://www.w3.org/2000/svg">
<path d="M8.3125 0.875C6.24119 0.877275 4.25538 1.70111 2.79074 3.16574C1.32611 4.63038 0.502275 6.61619 0.5 8.6875V15.2758C0.500413 15.6003 0.629526 15.9115 0.859022 16.141C1.08852 16.3705 1.39966 16.4996 1.72422 16.5H8.3125C10.3845 16.5 12.3716 15.6769 13.8368 14.2118C15.3019 12.7466 16.125 10.7595 16.125 8.6875C16.125 6.6155 15.3019 4.62836 13.8368 3.16323C12.3716 1.6981 10.3845 0.875 8.3125 0.875ZM8.3125 15.25H1.75V8.6875C1.75 7.38956 2.13488 6.12077 2.85598 5.04157C3.57708 3.96237 4.602 3.12124 5.80114 2.62454C7.00028 2.12784 8.31978 1.99788 9.59278 2.2511C10.8658 2.50431 12.0351 3.12933 12.9529 4.04711C13.8707 4.96489 14.4957 6.13422 14.7489 7.40722C15.0021 8.68022 14.8722 9.99972 14.3755 11.1989C13.8788 12.398 13.0376 13.4229 11.9584 14.144C10.8792 14.8651 9.61044 15.25 8.3125 15.25ZM9.25 9C9.25 9.18542 9.19502 9.36668 9.092 9.52085C8.98899 9.67502 8.84257 9.79518 8.67126 9.86614C8.49996 9.93709 8.31146 9.95566 8.1296 9.91949C7.94775 9.88331 7.7807 9.79402 7.64959 9.66291C7.51848 9.5318 7.42919 9.36475 7.39301 9.1829C7.35684 9.00104 7.37541 8.81254 7.44636 8.64123C7.51732 8.46993 7.63748 8.32351 7.79165 8.2205C7.94582 8.11748 8.12708 8.0625 8.3125 8.0625C8.56114 8.0625 8.7996 8.16127 8.97541 8.33709C9.15123 8.5129 9.25 8.75136 9.25 9ZM5.8125 9C5.8125 9.18542 5.75752 9.36668 5.6545 9.52085C5.55149 9.67502 5.40507 9.79518 5.23377 9.86614C5.06246 9.93709 4.87396 9.95566 4.6921 9.91949C4.51025 9.88331 4.3432 9.79402 4.21209 9.66291C4.08098 9.5318 3.99169 9.36475 3.95551 9.1829C3.91934 9.00104 3.93791 8.81254 4.00886 8.64123C4.07982 8.46993 4.19998 8.32351 4.35415 8.2205C4.50832 8.11748 4.68958 8.0625 4.875 8.0625C5.12364 8.0625 5.3621 8.16127 5.53791 8.33709C5.71373 8.5129 5.8125 8.75136 5.8125 9ZM12.6875 9C12.6875 9.18542 12.6325 9.36668 12.5295 9.52085C12.4265 9.67502 12.2801 9.79518 12.1088 9.86614C11.9375 9.93709 11.749 9.95566 11.5671 9.91949C11.3852 9.88331 11.2182 9.79402 11.0871 9.66291C10.956 9.5318 10.8667 9.36475 10.8305 9.1829C10.7943 9.00104 10.8129 8.81254 10.8839 8.64123C10.9548 8.46993 11.075 8.32351 11.2292 8.2205C11.3833 8.11748 11.5646 8.0625 11.75 8.0625C11.9986 8.0625 12.2371 8.16127 12.4129 8.33709C12.5887 8.5129 12.6875 8.75136 12.6875 9Z" fill="#090909"/>
</svg>
