<svg width="21" height="20" viewBox="0 0 21 20" fill="none" xmlns="http://www.w3.org/2000/svg">
<path d="M19.6252 11.7503C19.5596 11.7995 19.4849 11.8354 19.4053 11.8557C19.3258 11.8761 19.2431 11.8806 19.1618 11.869C19.0806 11.8574 19.0024 11.8299 18.9318 11.7881C18.8612 11.7463 18.7995 11.691 18.7502 11.6253C18.3735 11.1189 17.8832 10.7081 17.3187 10.4259C16.7542 10.1436 16.1313 9.99785 15.5002 10.0003C15.3773 10.0003 15.2572 9.96404 15.1548 9.89609C15.0523 9.82814 14.9722 9.73151 14.9245 9.61827C14.892 9.54138 14.8753 9.45876 14.8753 9.3753C14.8753 9.29184 14.892 9.20923 14.9245 9.13233C14.9722 9.0191 15.0523 8.92246 15.1548 8.85451C15.2572 8.78656 15.3773 8.75031 15.5002 8.7503C15.8509 8.75027 16.1946 8.6519 16.4921 8.46635C16.7897 8.2808 17.0293 8.01553 17.1837 7.70065C17.338 7.38577 17.401 7.03391 17.3654 6.68504C17.3298 6.33617 17.1971 6.00427 16.9823 5.72704C16.7676 5.44981 16.4794 5.23837 16.1505 5.11672C15.8216 4.99508 15.4651 4.96811 15.1217 5.03888C14.7782 5.10966 14.4615 5.27533 14.2074 5.51709C13.9534 5.75885 13.7723 6.06701 13.6846 6.40655C13.6641 6.48606 13.6281 6.56075 13.5787 6.62636C13.5293 6.69197 13.4675 6.74721 13.3968 6.78892C13.3261 6.83063 13.2478 6.85801 13.1665 6.86948C13.0852 6.88095 13.0024 6.87629 12.9229 6.85577C12.8434 6.83525 12.7687 6.79927 12.7031 6.74989C12.6375 6.7005 12.5822 6.63868 12.5405 6.56795C12.4988 6.49722 12.4714 6.41896 12.46 6.33765C12.4485 6.25634 12.4532 6.17356 12.4737 6.09405C12.5954 5.6232 12.8253 5.18725 13.1451 4.82089C13.4649 4.45452 13.8658 4.16786 14.3159 3.9837C14.766 3.79954 15.2529 3.72298 15.7378 3.76009C16.2227 3.79721 16.6922 3.94698 17.109 4.1975C17.5259 4.44802 17.8785 4.79236 18.1388 5.20313C18.3991 5.6139 18.56 6.07976 18.6086 6.56364C18.6572 7.04753 18.5922 7.53608 18.4188 7.99042C18.2454 8.44476 17.9683 8.85236 17.6096 9.18077C18.4595 9.54874 19.1982 10.1327 19.7526 10.8745C19.8018 10.9403 19.8376 11.0152 19.8579 11.0949C19.8781 11.1746 19.8824 11.2575 19.8706 11.3388C19.8588 11.4202 19.831 11.4984 19.7889 11.569C19.7468 11.6396 19.6912 11.7012 19.6252 11.7503ZM15.4159 16.5628C15.4611 16.6339 15.4914 16.7135 15.5051 16.7967C15.5188 16.8798 15.5155 16.9649 15.4955 17.0468C15.4754 17.1287 15.439 17.2056 15.3884 17.2731C15.3379 17.3405 15.2742 17.397 15.2012 17.4392C15.1282 17.4814 15.0475 17.5084 14.9638 17.5185C14.8801 17.5287 14.7952 17.5218 14.7143 17.4983C14.6333 17.4749 14.558 17.4352 14.4927 17.3819C14.4275 17.3285 14.3737 17.2625 14.3346 17.1878C13.9409 16.5211 13.3802 15.9686 12.7078 15.5848C12.0353 15.201 11.2745 14.9992 10.5002 14.9992C9.726 14.9992 8.96513 15.201 8.29272 15.5848C7.6203 15.9686 7.05958 16.5211 6.66586 17.1878C6.62679 17.2625 6.57301 17.3285 6.50777 17.3819C6.44252 17.4352 6.36715 17.4749 6.2862 17.4983C6.20524 17.5218 6.12037 17.5287 6.0367 17.5185C5.95302 17.5084 5.87226 17.4814 5.79928 17.4392C5.7263 17.397 5.66261 17.3405 5.61204 17.2731C5.56147 17.2056 5.52506 17.1287 5.50501 17.0468C5.48495 16.9649 5.48167 16.8798 5.49535 16.7967C5.50903 16.7135 5.53939 16.6339 5.58461 16.5628C6.19055 15.5217 7.11445 14.7024 8.22055 14.2253C7.59815 13.7488 7.14073 13.0892 6.91258 12.3392C6.68443 11.5893 6.69703 10.7867 6.94861 10.0443C7.20018 9.30188 7.67808 8.65697 8.31514 8.20021C8.95219 7.74344 9.71636 7.4978 10.5002 7.4978C11.2841 7.4978 12.0483 7.74344 12.6853 8.20021C13.3224 8.65697 13.8003 9.30188 14.0519 10.0443C14.3034 10.7867 14.316 11.5893 14.0879 12.3392C13.8597 13.0892 13.4023 13.7488 12.7799 14.2253C13.886 14.7024 14.8099 15.5217 15.4159 16.5628ZM10.5002 13.7503C10.9947 13.7503 11.478 13.6037 11.8892 13.329C12.3003 13.0543 12.6207 12.6638 12.8099 12.207C12.9992 11.7502 13.0487 11.2475 12.9522 10.7626C12.8557 10.2776 12.6176 9.83217 12.268 9.48254C11.9184 9.1329 11.4729 8.8948 10.988 8.79834C10.503 8.70188 10.0003 8.75138 9.54353 8.9406C9.08671 9.12982 8.69627 9.45025 8.42156 9.86138C8.14686 10.2725 8.00024 10.7558 8.00024 11.2503C8.00024 11.9133 8.26363 12.5492 8.73247 13.0181C9.20131 13.4869 9.8372 13.7503 10.5002 13.7503ZM6.12524 9.3753C6.12524 9.20954 6.05939 9.05057 5.94218 8.93336C5.82497 8.81615 5.666 8.7503 5.50024 8.7503C5.14956 8.75027 4.80591 8.6519 4.50834 8.46635C4.21076 8.2808 3.97119 8.01553 3.81682 7.70065C3.66246 7.38577 3.59949 7.03391 3.63508 6.68504C3.67066 6.33617 3.80337 6.00427 4.01813 5.72704C4.23289 5.44981 4.52109 5.23837 4.85 5.11672C5.17891 4.99508 5.53534 4.96811 5.8788 5.03888C6.22227 5.10966 6.539 5.27533 6.79303 5.51709C7.04706 5.75885 7.22819 6.06701 7.31586 6.40655C7.3573 6.56713 7.46083 6.70467 7.60369 6.78892C7.74654 6.87316 7.917 6.89721 8.07758 6.85577C8.23816 6.81433 8.3757 6.7108 8.45995 6.56795C8.54419 6.4251 8.56824 6.25463 8.5268 6.09405C8.40512 5.6232 8.17522 5.18725 7.8554 4.82089C7.53559 4.45452 7.13468 4.16786 6.68458 3.9837C6.23447 3.79954 5.7476 3.72298 5.2627 3.76009C4.7778 3.79721 4.30826 3.94698 3.89143 4.1975C3.4746 4.44802 3.12199 4.79236 2.86166 5.20313C2.60133 5.6139 2.44046 6.07976 2.39185 6.56364C2.34325 7.04753 2.40825 7.53608 2.58168 7.99042C2.75511 8.44476 3.03219 8.85236 3.39086 9.18077C2.54186 9.54909 1.80392 10.133 1.25024 10.8745C1.15068 11.0071 1.10787 11.1739 1.13124 11.338C1.15461 11.5022 1.24224 11.6504 1.37485 11.7499C1.50745 11.8495 1.67418 11.8923 1.83835 11.8689C2.00252 11.8455 2.15068 11.7579 2.25024 11.6253C2.62695 11.1189 3.11728 10.7081 3.68177 10.4259C4.24625 10.1436 4.86913 9.99785 5.50024 10.0003C5.666 10.0003 5.82497 9.93445 5.94218 9.81724C6.05939 9.70003 6.12524 9.54106 6.12524 9.3753Z" fill="#828789"/>
</svg>
