<svg width="20" height="19" viewBox="0 0 20 19" fill="none" xmlns="http://www.w3.org/2000/svg">
<path d="M18.3472 12.8557L13.9306 10.8766L13.9184 10.871C13.6892 10.7729 13.439 10.7336 13.1907 10.7565C12.9424 10.7794 12.7037 10.8639 12.4963 11.0022C12.4718 11.0184 12.4483 11.0359 12.4259 11.0547L10.1441 13.0001C8.69844 12.2979 7.20594 10.8166 6.50375 9.38974L8.45187 7.07318C8.47062 7.04974 8.48844 7.0263 8.50531 7.00099C8.64071 6.79409 8.72287 6.55692 8.74446 6.31059C8.76605 6.06427 8.72641 5.81642 8.62906 5.58912V5.57787L6.64437 1.1538C6.51569 0.856865 6.29443 0.609506 6.01361 0.448653C5.7328 0.2878 5.40749 0.22208 5.08625 0.261304C3.81591 0.428467 2.64986 1.05234 1.80587 2.01639C0.961894 2.98045 0.497703 4.21876 0.5 5.50005C0.5 12.9438 6.55625 19.0001 14 19.0001C15.2813 19.0023 16.5196 18.5382 17.4837 17.6942C18.4477 16.8502 19.0716 15.6841 19.2387 14.4138C19.278 14.0927 19.2125 13.7674 19.0518 13.4866C18.8911 13.2058 18.644 12.9845 18.3472 12.8557ZM14 17.5001C10.8185 17.4966 7.76824 16.2312 5.51856 13.9815C3.26887 11.7318 2.00347 8.68159 2 5.50005C1.99647 4.58458 2.3263 3.69911 2.92788 3.00903C3.52946 2.31895 4.36166 1.87143 5.26906 1.75005C5.26869 1.7538 5.26869 1.75756 5.26906 1.7613L7.23781 6.16755L5.3 8.48693C5.28033 8.50956 5.26246 8.5337 5.24656 8.55912C5.10548 8.7756 5.02272 9.02486 5.0063 9.28274C4.98987 9.54061 5.04034 9.79836 5.15281 10.031C6.00219 11.7682 7.7525 13.5054 9.50844 14.3538C9.74278 14.4652 10.002 14.5139 10.2608 14.4952C10.5196 14.4765 10.7691 14.3909 10.985 14.2469C11.0091 14.2307 11.0322 14.2132 11.0544 14.1944L13.3334 12.2501L17.7397 14.2235C17.7397 14.2235 17.7472 14.2235 17.75 14.2235C17.6301 15.1322 17.1833 15.9661 16.493 16.5691C15.8028 17.1722 14.9166 17.5031 14 17.5001Z" fill="black"/>
</svg>
